<?xml version="1.0" encoding="UTF-8"?>
<!-- Generator: https://ezgif.com/png-to-svg -->
<svg version="1.1" xmlns="http://www.w3.org/2000/svg" width="768" height="187">
<path d="M0,0 L26,0 L26,1 L32,1 L32,2 L36,2 L36,3 L40,3 L40,4 L43,4 L43,5 L46,5 L46,6 L48,6 L48,7 L50,7 L50,8 L52,8 L52,9 L55,9 L55,10 L56,10 L56,11 L58,11 L58,12 L60,12 L60,13 L62,13 L62,14 L63,14 L63,15 L65,15 L65,16 L66,16 L66,17 L67,17 L67,18 L69,18 L69,19 L70,19 L70,20 L71,20 L71,21 L72,21 L72,22 L73,22 L73,23 L75,23 L75,24 L76,24 L76,25 L77,25 L77,26 L78,26 L78,27 L79,27 L79,28 L80,28 L80,29 L81,29 L81,31 L82,31 L82,32 L83,32 L83,33 L84,33 L84,34 L85,34 L85,35 L86,35 L86,37 L87,37 L87,38 L88,38 L88,40 L89,40 L89,41 L90,41 L90,43 L91,43 L91,44 L92,44 L92,46 L93,46 L93,48 L94,48 L94,50 L95,50 L95,52 L96,52 L96,54 L97,54 L97,57 L98,57 L98,60 L99,60 L99,62 L100,62 L100,66 L101,66 L101,70 L102,70 L102,75 L103,75 L103,83 L104,83 L104,98 L103,98 L103,105 L102,105 L102,111 L101,111 L101,114 L100,114 L100,118 L99,118 L99,121 L98,121 L98,123 L97,123 L97,126 L96,126 L96,128 L95,128 L95,130 L94,130 L94,132 L93,132 L93,134 L92,134 L92,136 L91,136 L91,137 L90,137 L90,139 L89,139 L89,141 L88,141 L88,142 L87,142 L87,143 L86,143 L86,145 L85,145 L85,146 L84,146 L84,147 L83,147 L83,148 L82,148 L82,150 L81,150 L81,151 L80,151 L80,152 L79,152 L79,153 L78,153 L78,154 L77,154 L77,155 L76,155 L76,156 L75,156 L75,157 L74,157 L74,158 L73,158 L73,159 L71,159 L71,160 L70,160 L70,161 L69,161 L69,162 L68,162 L68,163 L66,163 L66,164 L65,164 L65,165 L63,165 L63,166 L62,166 L62,167 L60,167 L60,168 L59,168 L59,169 L57,169 L57,170 L55,170 L55,171 L53,171 L53,172 L51,172 L51,173 L48,173 L48,174 L46,174 L46,175 L43,175 L43,176 L40,176 L40,177 L37,177 L37,178 L33,178 L33,179 L27,179 L27,180 L14,180 L14,181 L12,181 L12,180 L-1,180 L-1,179 L-6,179 L-6,178 L-11,178 L-11,177 L-14,177 L-14,176 L-17,176 L-17,175 L-20,175 L-20,174 L-22,174 L-22,173 L-25,173 L-25,172 L-27,172 L-27,171 L-29,171 L-29,170 L-31,170 L-31,169 L-32,169 L-32,168 L-34,168 L-34,167 L-36,167 L-36,166 L-37,166 L-37,165 L-39,165 L-39,164 L-40,164 L-40,163 L-41,163 L-41,162 L-43,162 L-43,161 L-44,161 L-44,160 L-45,160 L-45,159 L-46,159 L-46,158 L-47,158 L-47,157 L-49,157 L-49,156 L-50,156 L-50,155 L-51,155 L-51,154 L-52,154 L-52,153 L-53,153 L-53,152 L-54,152 L-54,150 L-55,150 L-55,149 L-56,149 L-56,148 L-57,148 L-57,147 L-58,147 L-58,146 L-59,146 L-59,144 L-60,144 L-60,143 L-61,143 L-61,142 L-62,142 L-62,140 L-63,140 L-63,139 L-64,139 L-64,137 L-65,137 L-65,135 L-66,135 L-66,134 L-67,134 L-67,132 L-68,132 L-68,130 L-69,130 L-69,128 L-70,128 L-70,125 L-71,125 L-71,123 L-72,123 L-72,120 L-73,120 L-73,117 L-74,117 L-74,113 L-75,113 L-75,109 L-76,109 L-76,104 L-77,104 L-77,76 L-76,76 L-76,71 L-75,71 L-75,67 L-74,67 L-74,63 L-73,63 L-73,60 L-72,60 L-72,57 L-71,57 L-71,55 L-70,55 L-70,53 L-69,53 L-69,51 L-68,51 L-68,49 L-67,49 L-67,47 L-66,47 L-66,45 L-65,45 L-65,43 L-64,43 L-64,42 L-63,42 L-63,40 L-62,40 L-62,39 L-61,39 L-61,37 L-60,37 L-60,36 L-59,36 L-59,34 L-58,34 L-58,33 L-57,33 L-57,32 L-56,32 L-56,31 L-55,31 L-55,30 L-54,30 L-54,29 L-53,29 L-53,28 L-52,28 L-52,27 L-51,27 L-51,26 L-50,26 L-50,25 L-49,25 L-49,24 L-48,24 L-48,23 L-47,23 L-47,22 L-46,22 L-46,21 L-45,21 L-45,20 L-44,20 L-44,19 L-42,19 L-42,18 L-41,18 L-41,17 L-40,17 L-40,16 L-38,16 L-38,15 L-37,15 L-37,14 L-35,14 L-35,13 L-34,13 L-34,12 L-32,12 L-32,11 L-30,11 L-30,10 L-28,10 L-28,9 L-26,9 L-26,8 L-24,8 L-24,7 L-22,7 L-22,6 L-19,6 L-19,5 L-16,5 L-16,4 L-13,4 L-13,3 L-10,3 L-10,2 L-5,2 L-5,1 L0,1 Z " fill="#158CA8" transform="translate(77,0)"/>
<path d="M0,0 L2,0 L2,1 L3,1 L3,2 L4,2 L4,3 L5,3 L5,4 L6,4 L6,5 L8,5 L8,6 L9,6 L9,7 L10,7 L10,10 L9,10 L9,11 L8,11 L8,12 L6,12 L6,13 L5,13 L5,14 L4,14 L4,15 L3,15 L3,17 L4,17 L4,19 L5,19 L5,21 L6,21 L6,24 L7,24 L7,30 L8,30 L8,36 L7,36 L7,42 L6,42 L6,45 L5,45 L5,47 L4,47 L4,49 L3,49 L3,51 L2,51 L2,52 L1,52 L1,53 L0,53 L0,54 L-1,54 L-1,55 L-2,55 L-2,56 L-3,56 L-3,57 L-4,57 L-4,58 L-6,58 L-6,59 L-7,59 L-7,60 L-9,60 L-9,61 L-12,61 L-12,62 L-16,62 L-16,63 L-24,63 L-24,64 L-32,64 L-32,65 L-36,65 L-36,66 L-38,66 L-38,67 L-39,67 L-39,68 L-40,68 L-40,70 L-39,70 L-39,71 L-25,71 L-25,70 L-19,70 L-19,69 L-8,69 L-8,70 L-3,70 L-3,71 L0,71 L0,72 L2,72 L2,73 L4,73 L4,74 L5,74 L5,75 L6,75 L6,76 L7,76 L7,77 L8,77 L8,78 L9,78 L9,80 L10,80 L10,82 L11,82 L11,87 L12,87 L12,94 L11,94 L11,98 L10,98 L10,100 L9,100 L9,102 L8,102 L8,103 L7,103 L7,105 L6,105 L6,106 L5,106 L5,107 L3,107 L3,108 L2,108 L2,109 L1,109 L1,110 L-1,110 L-1,111 L-3,111 L-3,112 L-6,112 L-6,113 L-9,113 L-9,114 L-13,114 L-13,115 L-32,115 L-32,114 L-37,114 L-37,113 L-40,113 L-40,112 L-43,112 L-43,111 L-46,111 L-46,110 L-48,110 L-48,109 L-50,109 L-50,108 L-51,108 L-51,107 L-53,107 L-53,104 L-52,104 L-52,102 L-51,102 L-51,101 L-50,101 L-50,99 L-49,99 L-49,98 L-48,98 L-48,96 L-47,96 L-47,95 L-46,95 L-46,94 L-44,94 L-44,95 L-42,95 L-42,96 L-41,96 L-41,97 L-39,97 L-39,98 L-37,98 L-37,99 L-34,99 L-34,100 L-31,100 L-31,101 L-27,101 L-27,102 L-17,102 L-17,101 L-12,101 L-12,100 L-10,100 L-10,99 L-8,99 L-8,98 L-7,98 L-7,97 L-5,97 L-5,95 L-4,95 L-4,94 L-3,94 L-3,88 L-4,88 L-4,86 L-5,86 L-5,85 L-6,85 L-6,84 L-8,84 L-8,83 L-12,83 L-12,82 L-20,82 L-20,83 L-26,83 L-26,84 L-43,84 L-43,83 L-45,83 L-45,82 L-47,82 L-47,81 L-48,81 L-48,80 L-49,80 L-49,79 L-50,79 L-50,78 L-51,78 L-51,75 L-52,75 L-52,69 L-51,69 L-51,67 L-50,67 L-50,65 L-49,65 L-49,64 L-48,64 L-48,63 L-46,63 L-46,62 L-44,62 L-44,61 L-42,61 L-42,60 L-39,60 L-39,59 L-41,59 L-41,58 L-43,58 L-43,57 L-44,57 L-44,56 L-45,56 L-45,55 L-46,55 L-46,54 L-47,54 L-47,53 L-48,53 L-48,52 L-49,52 L-49,51 L-50,51 L-50,49 L-51,49 L-51,48 L-52,48 L-52,45 L-53,45 L-53,43 L-54,43 L-54,37 L-55,37 L-55,29 L-54,29 L-54,24 L-53,24 L-53,21 L-52,21 L-52,19 L-51,19 L-51,17 L-50,17 L-50,15 L-49,15 L-49,14 L-48,14 L-48,13 L-47,13 L-47,12 L-46,12 L-46,11 L-45,11 L-45,10 L-44,10 L-44,9 L-42,9 L-42,8 L-41,8 L-41,7 L-39,7 L-39,6 L-37,6 L-37,5 L-34,5 L-34,4 L-29,4 L-29,3 L-19,3 L-19,4 L-13,4 L-13,5 L-10,5 L-10,6 L-8,6 L-8,7 L-7,7 L-7,8 L-6,8 L-6,7 L-5,7 L-5,6 L-4,6 L-4,4 L-3,4 L-3,3 L-2,3 L-2,2 L-1,2 L-1,1 L0,1 Z M-29,16 L-29,17 L-31,17 L-31,18 L-32,18 L-32,19 L-34,19 L-34,20 L-35,20 L-35,22 L-36,22 L-36,23 L-37,23 L-37,25 L-38,25 L-38,27 L-39,27 L-39,39 L-38,39 L-38,42 L-37,42 L-37,44 L-36,44 L-36,45 L-35,45 L-35,46 L-34,46 L-34,47 L-33,47 L-33,48 L-32,48 L-32,49 L-30,49 L-30,50 L-28,50 L-28,51 L-19,51 L-19,50 L-16,50 L-16,49 L-15,49 L-15,48 L-14,48 L-14,47 L-13,47 L-13,46 L-12,46 L-12,45 L-11,45 L-11,43 L-10,43 L-10,41 L-9,41 L-9,38 L-8,38 L-8,29 L-9,29 L-9,25 L-10,25 L-10,23 L-11,23 L-11,22 L-12,22 L-12,21 L-13,21 L-13,20 L-14,20 L-14,19 L-15,19 L-15,18 L-16,18 L-16,17 L-18,17 L-18,16 Z " fill="#148CA8" transform="translate(557,27)"/>
<path d="M0,0 L15,0 L15,39 L16,39 L16,38 L17,38 L17,37 L18,37 L18,36 L19,36 L19,35 L21,35 L21,34 L22,34 L22,33 L25,33 L25,32 L28,32 L28,31 L32,31 L32,30 L41,30 L41,31 L46,31 L46,32 L48,32 L48,33 L50,33 L50,34 L52,34 L52,35 L53,35 L53,36 L54,36 L54,37 L56,37 L56,39 L57,39 L57,40 L58,40 L58,41 L59,41 L59,43 L60,43 L60,45 L61,45 L61,47 L62,47 L62,51 L63,51 L63,57 L64,57 L64,111 L63,111 L63,112 L49,112 L49,59 L48,59 L48,54 L47,54 L47,51 L46,51 L46,50 L45,50 L45,48 L44,48 L44,47 L43,47 L43,46 L41,46 L41,45 L40,45 L40,44 L36,44 L36,43 L29,43 L29,44 L26,44 L26,45 L24,45 L24,46 L22,46 L22,47 L21,47 L21,48 L19,48 L19,49 L18,49 L18,50 L17,50 L17,51 L16,51 L16,52 L15,52 L15,112 L1,112 L1,111 L0,111 Z " fill="#148CA8" transform="translate(582,0)"/>
<path d="M0,0 L15,0 L15,1 L19,1 L19,2 L22,2 L22,3 L24,3 L24,4 L25,4 L25,5 L27,5 L27,6 L28,6 L28,7 L29,7 L29,8 L30,8 L30,9 L31,9 L31,10 L32,10 L32,12 L33,12 L33,13 L34,13 L34,17 L35,17 L35,32 L34,32 L34,39 L33,39 L33,45 L32,45 L32,48 L31,48 L31,52 L30,52 L30,55 L29,55 L29,57 L28,57 L28,58 L27,58 L27,59 L26,59 L26,60 L24,60 L24,61 L22,61 L22,62 L20,62 L20,63 L16,63 L16,64 L-2,64 L-2,63 L-5,63 L-5,62 L-7,62 L-7,61 L-8,61 L-8,60 L-10,60 L-10,59 L-11,59 L-11,58 L-12,58 L-12,57 L-13,57 L-13,56 L-14,56 L-14,55 L-15,55 L-15,54 L-16,54 L-16,53 L-17,53 L-17,51 L-18,51 L-18,49 L-19,49 L-19,47 L-20,47 L-20,43 L-21,43 L-21,38 L-22,38 L-22,25 L-21,25 L-21,20 L-20,20 L-20,18 L-19,18 L-19,16 L-18,16 L-18,14 L-17,14 L-17,12 L-16,12 L-16,11 L-15,11 L-15,10 L-14,10 L-14,9 L-13,9 L-13,8 L-12,8 L-12,7 L-11,7 L-11,6 L-10,6 L-10,5 L-9,5 L-9,4 L-7,4 L-7,3 L-5,3 L-5,2 L-3,2 L-3,1 L0,1 Z " fill="#F9FBFC" transform="translate(146,66)"/>
<path d="M0,0 L10,0 L10,1 L16,1 L16,2 L19,2 L19,3 L21,3 L21,4 L23,4 L23,5 L25,5 L25,6 L26,6 L26,7 L28,7 L28,8 L29,8 L29,9 L30,9 L30,10 L31,10 L31,11 L32,11 L32,13 L33,13 L33,14 L34,14 L34,15 L35,15 L35,17 L36,17 L36,19 L37,19 L37,22 L38,22 L38,24 L39,24 L39,29 L40,29 L40,35 L41,35 L41,47 L40,47 L40,54 L39,54 L39,58 L38,58 L38,61 L37,61 L37,63 L36,63 L36,65 L35,65 L35,67 L34,67 L34,69 L33,69 L33,70 L32,70 L32,71 L31,71 L31,73 L30,73 L30,74 L29,74 L29,75 L27,75 L27,76 L26,76 L26,77 L25,77 L25,78 L23,78 L23,79 L21,79 L21,80 L19,80 L19,81 L16,81 L16,82 L11,82 L11,83 L-3,83 L-3,82 L-7,82 L-7,81 L-10,81 L-10,80 L-12,80 L-12,79 L-14,79 L-14,78 L-16,78 L-16,77 L-17,77 L-17,76 L-19,76 L-19,75 L-20,75 L-20,74 L-21,74 L-21,73 L-22,73 L-22,72 L-23,72 L-23,70 L-24,70 L-24,69 L-25,69 L-25,67 L-26,67 L-26,66 L-27,66 L-27,64 L-28,64 L-28,61 L-29,61 L-29,58 L-30,58 L-30,54 L-31,54 L-31,48 L-32,48 L-32,36 L-31,36 L-31,29 L-30,29 L-30,25 L-29,25 L-29,22 L-28,22 L-28,20 L-27,20 L-27,18 L-26,18 L-26,16 L-25,16 L-25,15 L-24,15 L-24,14 L-23,14 L-23,12 L-22,12 L-22,11 L-21,11 L-21,10 L-20,10 L-20,9 L-19,9 L-19,8 L-18,8 L-18,7 L-16,7 L-16,6 L-15,6 L-15,5 L-13,5 L-13,4 L-11,4 L-11,3 L-9,3 L-9,2 L-6,2 L-6,1 L0,1 Z M-1,13 L-1,14 L-3,14 L-3,15 L-5,15 L-5,16 L-7,16 L-7,17 L-8,17 L-8,18 L-9,18 L-9,19 L-10,19 L-10,21 L-11,21 L-11,22 L-12,22 L-12,24 L-13,24 L-13,26 L-14,26 L-14,30 L-15,30 L-15,35 L-16,35 L-16,49 L-15,49 L-15,55 L-14,55 L-14,58 L-13,58 L-13,60 L-12,60 L-12,62 L-11,62 L-11,63 L-10,63 L-10,65 L-9,65 L-9,66 L-8,66 L-8,67 L-6,67 L-6,68 L-5,68 L-5,69 L-2,69 L-2,70 L11,70 L11,69 L13,69 L13,68 L15,68 L15,67 L16,67 L16,66 L17,66 L17,65 L18,65 L18,64 L19,64 L19,62 L20,62 L20,61 L21,61 L21,59 L22,59 L22,57 L23,57 L23,53 L24,53 L24,48 L25,48 L25,34 L24,34 L24,29 L23,29 L23,25 L22,25 L22,23 L21,23 L21,21 L20,21 L20,20 L19,20 L19,18 L18,18 L18,17 L16,17 L16,16 L15,16 L15,15 L13,15 L13,14 L10,14 L10,13 Z " fill="#148CA8" transform="translate(351,30)"/>
<path d="M0,0 L9,0 L9,1 L14,1 L14,2 L18,2 L18,3 L21,3 L21,4 L24,4 L24,5 L26,5 L26,6 L27,6 L27,8 L26,8 L26,11 L25,11 L25,15 L24,15 L24,18 L23,18 L23,20 L22,20 L22,19 L21,19 L21,18 L19,18 L19,17 L17,17 L17,16 L16,16 L16,15 L13,15 L13,14 L10,14 L10,13 L2,13 L2,14 L-1,14 L-1,15 L-2,15 L-2,16 L-4,16 L-4,18 L-5,18 L-5,25 L-4,25 L-4,27 L-3,27 L-3,28 L-2,28 L-2,29 L-1,29 L-1,30 L1,30 L1,31 L2,31 L2,32 L5,32 L5,33 L7,33 L7,34 L9,34 L9,35 L11,35 L11,36 L13,36 L13,37 L15,37 L15,38 L17,38 L17,39 L19,39 L19,40 L20,40 L20,41 L22,41 L22,42 L23,42 L23,43 L24,43 L24,44 L25,44 L25,45 L26,45 L26,46 L27,46 L27,47 L28,47 L28,49 L29,49 L29,52 L30,52 L30,56 L31,56 L31,64 L30,64 L30,68 L29,68 L29,70 L28,70 L28,72 L27,72 L27,74 L26,74 L26,75 L25,75 L25,76 L24,76 L24,77 L22,77 L22,78 L21,78 L21,79 L19,79 L19,80 L17,80 L17,81 L14,81 L14,82 L9,82 L9,83 L-5,83 L-5,82 L-10,82 L-10,81 L-13,81 L-13,80 L-16,80 L-16,79 L-18,79 L-18,78 L-20,78 L-20,77 L-22,77 L-22,75 L-21,75 L-21,72 L-20,72 L-20,70 L-19,70 L-19,67 L-18,67 L-18,64 L-17,64 L-17,63 L-14,63 L-14,64 L-13,64 L-13,65 L-11,65 L-11,66 L-9,66 L-9,67 L-7,67 L-7,68 L-5,68 L-5,69 L-2,69 L-2,70 L8,70 L8,69 L10,69 L10,68 L12,68 L12,67 L13,67 L13,65 L14,65 L14,63 L15,63 L15,57 L14,57 L14,55 L13,55 L13,54 L12,54 L12,53 L11,53 L11,52 L10,52 L10,51 L9,51 L9,50 L7,50 L7,49 L6,49 L6,48 L4,48 L4,47 L2,47 L2,46 L-1,46 L-1,45 L-3,45 L-3,44 L-5,44 L-5,43 L-7,43 L-7,42 L-8,42 L-8,41 L-10,41 L-10,40 L-12,40 L-12,39 L-13,39 L-13,38 L-14,38 L-14,37 L-15,37 L-15,36 L-16,36 L-16,35 L-17,35 L-17,34 L-18,34 L-18,32 L-19,32 L-19,30 L-20,30 L-20,27 L-21,27 L-21,15 L-20,15 L-20,12 L-19,12 L-19,10 L-18,10 L-18,9 L-17,9 L-17,8 L-16,8 L-16,7 L-15,7 L-15,6 L-14,6 L-14,5 L-12,5 L-12,4 L-11,4 L-11,3 L-8,3 L-8,2 L-6,2 L-6,1 L0,1 Z " fill="#148CA8" transform="translate(422,30)"/>
<path d="M0,0 L9,0 L9,1 L14,1 L14,2 L18,2 L18,3 L21,3 L21,4 L24,4 L24,5 L26,5 L26,6 L27,6 L27,8 L26,8 L26,11 L25,11 L25,14 L24,14 L24,17 L23,17 L23,20 L22,20 L22,19 L20,19 L20,18 L19,18 L19,17 L17,17 L17,16 L15,16 L15,15 L13,15 L13,14 L9,14 L9,13 L2,13 L2,14 L-1,14 L-1,15 L-2,15 L-2,16 L-4,16 L-4,17 L-5,17 L-5,19 L-6,19 L-6,23 L-5,23 L-5,26 L-4,26 L-4,27 L-3,27 L-3,28 L-2,28 L-2,29 L-1,29 L-1,30 L0,30 L0,31 L2,31 L2,32 L4,32 L4,33 L7,33 L7,34 L9,34 L9,35 L11,35 L11,36 L13,36 L13,37 L15,37 L15,38 L17,38 L17,39 L19,39 L19,40 L20,40 L20,41 L22,41 L22,42 L23,42 L23,43 L24,43 L24,44 L25,44 L25,45 L26,45 L26,46 L27,46 L27,48 L28,48 L28,50 L29,50 L29,52 L30,52 L30,67 L29,67 L29,70 L28,70 L28,72 L27,72 L27,73 L26,73 L26,75 L25,75 L25,76 L24,76 L24,77 L22,77 L22,78 L21,78 L21,79 L19,79 L19,80 L17,80 L17,81 L14,81 L14,82 L9,82 L9,83 L-5,83 L-5,82 L-10,82 L-10,81 L-14,81 L-14,80 L-16,80 L-16,79 L-19,79 L-19,78 L-21,78 L-21,77 L-22,77 L-22,75 L-21,75 L-21,72 L-20,72 L-20,69 L-19,69 L-19,66 L-18,66 L-18,64 L-17,64 L-17,63 L-15,63 L-15,64 L-13,64 L-13,65 L-11,65 L-11,66 L-9,66 L-9,67 L-7,67 L-7,68 L-5,68 L-5,69 L-2,69 L-2,70 L7,70 L7,69 L10,69 L10,68 L12,68 L12,67 L13,67 L13,65 L14,65 L14,62 L15,62 L15,58 L14,58 L14,56 L13,56 L13,54 L12,54 L12,53 L11,53 L11,52 L10,52 L10,51 L9,51 L9,50 L7,50 L7,49 L6,49 L6,48 L3,48 L3,47 L1,47 L1,46 L-1,46 L-1,45 L-3,45 L-3,44 L-5,44 L-5,43 L-7,43 L-7,42 L-9,42 L-9,41 L-10,41 L-10,40 L-12,40 L-12,39 L-13,39 L-13,38 L-14,38 L-14,37 L-15,37 L-15,36 L-16,36 L-16,35 L-17,35 L-17,34 L-18,34 L-18,32 L-19,32 L-19,31 L-20,31 L-20,28 L-21,28 L-21,14 L-20,14 L-20,12 L-19,12 L-19,10 L-18,10 L-18,9 L-17,9 L-17,8 L-16,8 L-16,7 L-15,7 L-15,6 L-14,6 L-14,5 L-13,5 L-13,4 L-11,4 L-11,3 L-9,3 L-9,2 L-6,2 L-6,1 L0,1 Z " fill="#148CA8" transform="translate(738,30)"/>
<path d="M0,0 L2,0 L2,22 L24,22 L24,34 L2,34 L2,73 L3,73 L3,81 L4,81 L4,84 L5,84 L5,86 L6,86 L6,87 L7,87 L7,88 L9,88 L9,89 L11,89 L11,90 L21,90 L21,89 L24,89 L24,88 L27,88 L27,87 L28,87 L28,93 L29,93 L29,98 L30,98 L30,101 L26,101 L26,102 L20,102 L20,103 L5,103 L5,102 L2,102 L2,101 L0,101 L0,100 L-2,100 L-2,99 L-3,99 L-3,98 L-5,98 L-5,97 L-6,97 L-6,96 L-7,96 L-7,94 L-8,94 L-8,93 L-9,93 L-9,91 L-10,91 L-10,89 L-11,89 L-11,87 L-12,87 L-12,81 L-13,81 L-13,34 L-22,34 L-22,22 L-13,22 L-13,5 L-10,5 L-10,4 L-8,4 L-8,3 L-5,3 L-5,2 L-3,2 L-3,1 L0,1 Z " fill="#148CA8" transform="translate(679,10)"/>
<path d="M0,0 L16,0 L16,2 L17,2 L17,5 L18,5 L18,7 L19,7 L19,10 L20,10 L20,13 L21,13 L21,15 L22,15 L22,18 L23,18 L23,21 L24,21 L24,23 L25,23 L25,26 L26,26 L26,29 L27,29 L27,31 L28,31 L28,34 L29,34 L29,37 L30,37 L30,39 L31,39 L31,42 L32,42 L32,44 L33,44 L33,47 L34,47 L34,50 L35,50 L35,52 L36,52 L36,54 L37,54 L37,51 L38,51 L38,48 L39,48 L39,46 L40,46 L40,43 L41,43 L41,41 L42,41 L42,38 L43,38 L43,36 L44,36 L44,33 L45,33 L45,30 L46,30 L46,28 L47,28 L47,25 L48,25 L48,23 L49,23 L49,20 L50,20 L50,17 L51,17 L51,15 L52,15 L52,12 L53,12 L53,10 L54,10 L54,7 L55,7 L55,5 L56,5 L56,2 L57,2 L57,0 L72,0 L72,1 L73,1 L73,2 L72,2 L72,4 L71,4 L71,7 L70,7 L70,9 L69,9 L69,11 L68,11 L68,13 L67,13 L67,16 L66,16 L66,18 L65,18 L65,20 L64,20 L64,23 L63,23 L63,25 L62,25 L62,27 L61,27 L61,30 L60,30 L60,32 L59,32 L59,34 L58,34 L58,37 L57,37 L57,39 L56,39 L56,41 L55,41 L55,44 L54,44 L54,46 L53,46 L53,48 L52,48 L52,51 L51,51 L51,53 L50,53 L50,55 L49,55 L49,58 L48,58 L48,60 L47,60 L47,62 L46,62 L46,65 L45,65 L45,67 L44,67 L44,69 L43,69 L43,72 L42,72 L42,74 L41,74 L41,76 L40,76 L40,79 L39,79 L39,81 L38,81 L38,82 L33,82 L33,80 L32,80 L32,77 L31,77 L31,75 L30,75 L30,73 L29,73 L29,70 L28,70 L28,68 L27,68 L27,65 L26,65 L26,63 L25,63 L25,61 L24,61 L24,58 L23,58 L23,56 L22,56 L22,54 L21,54 L21,51 L20,51 L20,49 L19,49 L19,47 L18,47 L18,44 L17,44 L17,42 L16,42 L16,39 L15,39 L15,37 L14,37 L14,35 L13,35 L13,32 L12,32 L12,30 L11,30 L11,27 L10,27 L10,25 L9,25 L9,23 L8,23 L8,20 L7,20 L7,18 L6,18 L6,16 L5,16 L5,13 L4,13 L4,11 L3,11 L3,8 L2,8 L2,6 L1,6 L1,4 L0,4 Z " fill="#148CA8" transform="translate(245,31)"/>
<path d="M0,0 L16,0 L16,1 L17,1 L17,3 L18,3 L18,6 L19,6 L19,9 L20,9 L20,11 L21,11 L21,14 L22,14 L22,16 L23,16 L23,19 L24,19 L24,21 L25,21 L25,24 L26,24 L26,26 L27,26 L27,29 L28,29 L28,32 L29,32 L29,34 L30,34 L30,37 L32,37 L32,34 L33,34 L33,32 L34,32 L34,30 L35,30 L35,27 L36,27 L36,25 L37,25 L37,22 L38,22 L38,20 L39,20 L39,18 L40,18 L40,15 L41,15 L41,13 L42,13 L42,11 L43,11 L43,8 L44,8 L44,6 L45,6 L45,3 L46,3 L46,1 L47,1 L47,0 L62,0 L62,2 L61,2 L61,4 L60,4 L60,6 L59,6 L59,9 L58,9 L58,11 L57,11 L57,13 L56,13 L56,15 L55,15 L55,17 L54,17 L54,20 L53,20 L53,22 L52,22 L52,24 L51,24 L51,26 L50,26 L50,28 L49,28 L49,31 L48,31 L48,33 L47,33 L47,35 L46,35 L46,37 L45,37 L45,39 L44,39 L44,42 L43,42 L43,44 L42,44 L42,46 L41,46 L41,48 L40,48 L40,50 L39,50 L39,53 L38,53 L38,55 L37,55 L37,57 L36,57 L36,59 L35,59 L35,61 L34,61 L34,64 L28,64 L28,62 L27,62 L27,59 L26,59 L26,57 L25,57 L25,55 L24,55 L24,53 L23,53 L23,50 L22,50 L22,48 L21,48 L21,46 L20,46 L20,44 L19,44 L19,41 L18,41 L18,39 L17,39 L17,37 L16,37 L16,35 L15,35 L15,32 L14,32 L14,30 L13,30 L13,28 L12,28 L12,26 L11,26 L11,23 L10,23 L10,21 L9,21 L9,19 L8,19 L8,17 L7,17 L7,14 L6,14 L6,12 L5,12 L5,10 L4,10 L4,8 L3,8 L3,5 L2,5 L2,3 L1,3 L1,1 L0,1 Z " fill="#F8FBFB" transform="translate(61,67)"/>
<path d="M0,0 L25,0 L25,1 L26,1 L26,79 L25,79 L25,80 L11,80 L11,79 L10,79 L10,13 L0,13 Z " fill="#148CA8" transform="translate(207,32)"/>
<path d="M0,0 L26,0 L26,80 L12,80 L12,79 L11,79 L11,13 L1,13 L1,12 L0,12 Z " fill="#148CA8" transform="translate(462,32)"/>
<path d="M0,0 L23,0 L23,63 L8,63 L8,12 L0,12 Z " fill="#F6FAFB" transform="translate(29,67)"/>
<path d="M0,0 L11,0 L11,1 L12,1 L12,2 L14,2 L14,3 L15,3 L15,4 L16,4 L16,5 L17,5 L17,7 L18,7 L18,9 L19,9 L19,13 L20,13 L20,25 L19,25 L19,29 L18,29 L18,32 L17,32 L17,34 L16,34 L16,36 L15,36 L15,37 L14,37 L14,38 L13,38 L13,39 L11,39 L11,40 L8,40 L8,41 L1,41 L1,40 L-1,40 L-1,39 L-3,39 L-3,38 L-4,38 L-4,37 L-5,37 L-5,36 L-6,36 L-6,35 L-7,35 L-7,33 L-8,33 L-8,30 L-9,30 L-9,27 L-10,27 L-10,13 L-9,13 L-9,10 L-8,10 L-8,8 L-7,8 L-7,6 L-6,6 L-6,5 L-5,5 L-5,4 L-4,4 L-4,3 L-3,3 L-3,2 L-2,2 L-2,1 L0,1 Z " fill="#198EAA" transform="translate(149,78)"/>
<path d="M0,0 L5,0 L5,1 L7,1 L7,0 L10,0 L10,1 L11,1 L11,3 L10,3 L10,6 L11,6 L11,10 L10,10 L10,12 L9,12 L9,14 L7,14 L7,15 L5,15 L5,16 L7,16 L7,17 L10,17 L10,18 L11,18 L11,20 L12,20 L12,24 L11,24 L11,26 L10,26 L10,27 L8,27 L8,28 L-2,28 L-2,27 L-4,27 L-4,26 L-5,26 L-5,24 L-4,24 L-4,23 L-3,23 L-3,22 L-2,22 L-2,23 L0,23 L0,24 L6,24 L6,23 L7,23 L7,21 L6,21 L6,20 L4,20 L4,21 L-3,21 L-3,20 L-4,20 L-4,19 L-5,19 L-5,16 L-4,16 L-4,15 L-3,15 L-3,13 L-4,13 L-4,12 L-5,12 L-5,4 L-4,4 L-4,3 L-3,3 L-3,2 L-2,2 L-2,1 L0,1 Z M1,4 L1,5 L0,5 L0,7 L-1,7 L-1,9 L0,9 L0,11 L1,11 L1,12 L4,12 L4,11 L5,11 L5,10 L6,10 L6,6 L5,6 L5,5 L4,5 L4,4 Z M0,16 L0,17 L3,17 L3,16 Z " fill="#5E5C5C" transform="translate(710,159)"/>
<path d="M0,0 L4,0 L4,1 L6,1 L6,0 L9,0 L9,1 L10,1 L10,3 L9,3 L9,6 L10,6 L10,10 L9,10 L9,13 L8,13 L8,14 L7,14 L7,15 L4,15 L4,16 L6,16 L6,17 L9,17 L9,18 L10,18 L10,20 L11,20 L11,24 L10,24 L10,26 L9,26 L9,27 L7,27 L7,28 L-3,28 L-3,27 L-5,27 L-5,26 L-6,26 L-6,25 L-5,25 L-5,23 L-4,23 L-4,22 L-3,22 L-3,23 L-1,23 L-1,24 L5,24 L5,23 L6,23 L6,21 L5,21 L5,20 L3,20 L3,21 L-4,21 L-4,20 L-5,20 L-5,18 L-6,18 L-6,17 L-5,17 L-5,15 L-4,15 L-4,13 L-5,13 L-5,12 L-6,12 L-6,4 L-5,4 L-5,3 L-4,3 L-4,2 L-3,2 L-3,1 L0,1 Z M1,4 L1,5 L-1,5 L-1,7 L-2,7 L-2,9 L-1,9 L-1,11 L0,11 L0,12 L3,12 L3,11 L4,11 L4,10 L5,10 L5,6 L4,6 L4,5 L3,5 L3,4 Z M-1,16 L-1,17 L3,17 L3,16 Z " fill="#5E5C5C" transform="translate(548,159)"/>
<path d="M0,0 L4,0 L4,1 L7,1 L7,0 L10,0 L10,1 L11,1 L11,3 L10,3 L10,12 L9,12 L9,13 L8,13 L8,14 L7,14 L7,15 L5,15 L5,16 L7,16 L7,17 L9,17 L9,18 L10,18 L10,19 L11,19 L11,25 L10,25 L10,26 L9,26 L9,27 L8,27 L8,28 L-3,28 L-3,27 L-5,27 L-5,24 L-4,24 L-4,23 L-3,23 L-3,22 L-2,22 L-2,23 L-1,23 L-1,24 L6,24 L6,23 L7,23 L7,21 L5,21 L5,20 L3,20 L3,21 L-3,21 L-3,20 L-4,20 L-4,19 L-5,19 L-5,16 L-4,16 L-4,15 L-3,15 L-3,14 L-4,14 L-4,12 L-5,12 L-5,10 L-6,10 L-6,6 L-5,6 L-5,4 L-4,4 L-4,2 L-2,2 L-2,1 L0,1 Z M1,4 L1,5 L0,5 L0,6 L-1,6 L-1,10 L0,10 L0,11 L1,11 L1,12 L4,12 L4,11 L5,11 L5,9 L6,9 L6,7 L5,7 L5,5 L4,5 L4,4 Z M-1,16 L-1,17 L3,17 L3,16 Z " fill="#5E5C5C" transform="translate(509,159)"/>
<path d="M0,0 L5,0 L5,28 L-8,28 L-8,27 L-10,27 L-10,26 L-11,26 L-11,24 L-12,24 L-12,22 L-13,22 L-13,15 L-12,15 L-12,12 L-11,12 L-11,11 L-10,11 L-10,10 L-9,10 L-9,9 L-8,9 L-8,8 L-6,8 L-6,7 L-1,7 L-1,8 L0,8 Z M-4,11 L-4,12 L-6,12 L-6,13 L-7,13 L-7,15 L-8,15 L-8,22 L-7,22 L-7,23 L-6,23 L-6,24 L0,24 L0,12 L-2,12 L-2,11 Z " fill="#5E5C5C" transform="translate(268,152)"/>
<path d="M0,0 L5,0 L5,28 L-8,28 L-8,27 L-10,27 L-10,26 L-11,26 L-11,24 L-12,24 L-12,21 L-13,21 L-13,15 L-12,15 L-12,12 L-11,12 L-11,11 L-10,11 L-10,10 L-9,10 L-9,9 L-8,9 L-8,8 L-5,8 L-5,7 L-1,7 L-1,8 L0,8 Z M-4,11 L-4,12 L-6,12 L-6,13 L-7,13 L-7,15 L-8,15 L-8,21 L-7,21 L-7,23 L-6,23 L-6,24 L0,24 L0,12 L-1,12 L-1,11 Z " fill="#5E5C5C" transform="translate(394,152)"/>
<path d="M0,0 L7,0 L7,1 L9,1 L9,2 L10,2 L10,3 L11,3 L11,4 L12,4 L12,6 L13,6 L13,12 L12,12 L12,14 L11,14 L11,15 L10,15 L10,16 L9,16 L9,17 L8,17 L8,18 L-1,18 L-1,17 L-2,17 L-2,16 L-3,16 L-3,15 L-4,15 L-4,14 L-5,14 L-5,11 L-6,11 L-6,7 L-5,7 L-5,5 L-4,5 L-4,3 L-3,3 L-3,2 L-2,2 L-2,1 L0,1 Z " fill="#148CA8" transform="translate(222,2)"/>
<path d="M0,0 L7,0 L7,1 L9,1 L9,2 L10,2 L10,3 L11,3 L11,5 L12,5 L12,8 L13,8 L13,11 L12,11 L12,14 L11,14 L11,15 L10,15 L10,16 L9,16 L9,17 L7,17 L7,18 L-1,18 L-1,17 L-2,17 L-2,16 L-3,16 L-3,15 L-4,15 L-4,14 L-5,14 L-5,12 L-6,12 L-6,6 L-5,6 L-5,4 L-4,4 L-4,3 L-3,3 L-3,2 L-2,2 L-2,1 L0,1 Z " fill="#148CA8" transform="translate(478,2)"/>
<path d="M0,0 L5,0 L5,8 L8,8 L8,7 L12,7 L12,8 L14,8 L14,9 L15,9 L15,10 L16,10 L16,12 L17,12 L17,28 L12,28 L12,13 L11,13 L11,12 L10,12 L10,11 L8,11 L8,12 L6,12 L6,13 L5,13 L5,28 L0,28 Z " fill="#5E5C5C" transform="translate(724,152)"/>
<path d="M0,0 L4,0 L4,28 L0,28 L0,27 L-1,27 L-1,28 L-9,28 L-9,27 L-10,27 L-10,26 L-11,26 L-11,25 L-12,25 L-12,24 L-13,24 L-13,21 L-14,21 L-14,16 L-13,16 L-13,13 L-12,13 L-12,11 L-11,11 L-11,10 L-10,10 L-10,9 L-9,9 L-9,8 L-6,8 L-6,7 L-2,7 L-2,8 L0,8 Z M-5,11 L-5,12 L-7,12 L-7,13 L-8,13 L-8,15 L-9,15 L-9,21 L-8,21 L-8,23 L-7,23 L-7,24 L-1,24 L-1,23 L0,23 L0,13 L-1,13 L-1,12 L-2,12 L-2,11 Z " fill="#5E5C5C" transform="translate(655,152)"/>
<path d="M0,0 L4,0 L4,1 L7,1 L7,2 L9,2 L9,4 L10,4 L10,5 L11,5 L11,12 L-3,12 L-3,14 L-2,14 L-2,16 L0,16 L0,17 L6,17 L6,16 L8,16 L8,17 L9,17 L9,20 L7,20 L7,21 L-2,21 L-2,20 L-4,20 L-4,19 L-5,19 L-5,18 L-6,18 L-6,17 L-7,17 L-7,14 L-8,14 L-8,8 L-7,8 L-7,5 L-6,5 L-6,4 L-5,4 L-5,3 L-4,3 L-4,2 L-3,2 L-3,1 L0,1 Z M1,4 L1,5 L-1,5 L-1,6 L-2,6 L-2,7 L-3,7 L-3,8 L6,8 L6,6 L5,6 L5,5 L3,5 L3,4 Z " fill="#5E5C5C" transform="translate(568,159)"/>
<path d="M0,0 L5,0 L5,1 L8,1 L8,2 L9,2 L9,3 L10,3 L10,4 L11,4 L11,7 L12,7 L12,11 L11,11 L11,12 L-2,12 L-2,15 L-1,15 L-1,16 L0,16 L0,17 L6,17 L6,16 L9,16 L9,17 L10,17 L10,19 L9,19 L9,20 L8,20 L8,21 L-2,21 L-2,20 L-3,20 L-3,19 L-4,19 L-4,18 L-5,18 L-5,17 L-6,17 L-6,15 L-7,15 L-7,7 L-6,7 L-6,5 L-5,5 L-5,3 L-4,3 L-4,2 L-2,2 L-2,1 L0,1 Z M1,4 L1,5 L0,5 L0,6 L-1,6 L-1,7 L-2,7 L-2,8 L7,8 L7,6 L6,6 L6,5 L4,5 L4,4 Z " fill="#5E5C5C" transform="translate(669,159)"/>
<path d="M0,0 L4,0 L4,1 L7,1 L7,2 L8,2 L8,3 L9,3 L9,4 L10,4 L10,6 L11,6 L11,12 L-3,12 L-3,14 L-2,14 L-2,16 L0,16 L0,17 L6,17 L6,16 L8,16 L8,17 L9,17 L9,20 L7,20 L7,21 L-2,21 L-2,20 L-4,20 L-4,19 L-5,19 L-5,18 L-6,18 L-6,17 L-7,17 L-7,14 L-8,14 L-8,8 L-7,8 L-7,5 L-6,5 L-6,4 L-5,4 L-5,3 L-4,3 L-4,2 L-3,2 L-3,1 L0,1 Z M1,4 L1,5 L-1,5 L-1,6 L-2,6 L-2,7 L-3,7 L-3,8 L6,8 L6,6 L5,6 L5,5 L3,5 L3,4 Z " fill="#5E5C5C" transform="translate(470,159)"/>
<path d="M0,0 L5,0 L5,1 L8,1 L8,2 L9,2 L9,3 L10,3 L10,4 L11,4 L11,12 L-2,12 L-2,15 L-1,15 L-1,16 L0,16 L0,17 L6,17 L6,16 L9,16 L9,18 L10,18 L10,19 L9,19 L9,20 L7,20 L7,21 L-2,21 L-2,20 L-4,20 L-4,19 L-5,19 L-5,18 L-6,18 L-6,16 L-7,16 L-7,6 L-6,6 L-6,4 L-5,4 L-5,3 L-4,3 L-4,2 L-2,2 L-2,1 L0,1 Z M1,4 L1,5 L-1,5 L-1,6 L-2,6 L-2,8 L7,8 L7,7 L6,7 L6,5 L4,5 L4,4 Z " fill="#5E5C5C" transform="translate(283,159)"/>
<path d="M0,0 L4,0 L4,1 L7,1 L7,2 L8,2 L8,3 L9,3 L9,4 L10,4 L10,17 L11,17 L11,19 L12,19 L12,21 L7,21 L7,20 L5,20 L5,21 L-3,21 L-3,20 L-4,20 L-4,19 L-5,19 L-5,17 L-6,17 L-6,13 L-5,13 L-5,11 L-4,11 L-4,10 L-3,10 L-3,9 L-1,9 L-1,8 L6,8 L6,7 L5,7 L5,5 L2,5 L2,4 L1,4 L1,5 L-2,5 L-2,6 L-4,6 L-4,4 L-5,4 L-5,2 L-4,2 L-4,1 L0,1 Z M2,11 L2,12 L0,12 L0,13 L-1,13 L-1,17 L4,17 L4,16 L5,16 L5,15 L6,15 L6,11 Z " fill="#5E5C5C" transform="translate(528,159)"/>
<path d="M0,0 L4,0 L4,1 L7,1 L7,2 L8,2 L8,3 L9,3 L9,4 L10,4 L10,17 L11,17 L11,18 L12,18 L12,21 L7,21 L7,20 L5,20 L5,21 L-3,21 L-3,20 L-4,20 L-4,19 L-5,19 L-5,17 L-6,17 L-6,13 L-5,13 L-5,11 L-4,11 L-4,10 L-3,10 L-3,9 L-1,9 L-1,8 L6,8 L6,7 L5,7 L5,5 L2,5 L2,4 L1,4 L1,5 L-2,5 L-2,6 L-4,6 L-4,4 L-5,4 L-5,2 L-3,2 L-3,1 L0,1 Z M2,11 L2,12 L0,12 L0,13 L-1,13 L-1,17 L4,17 L4,16 L5,16 L5,15 L6,15 L6,11 Z " fill="#5E5C5C" transform="translate(347,159)"/>
<path d="M0,0 L6,0 L6,1 L8,1 L8,2 L10,2 L10,4 L11,4 L11,5 L12,5 L12,11 L11,11 L11,13 L10,13 L10,14 L9,14 L9,15 L8,15 L8,16 L6,16 L6,17 L1,17 L1,16 L-1,16 L-1,15 L-2,15 L-2,14 L-3,14 L-3,13 L-4,13 L-4,11 L-5,11 L-5,5 L-4,5 L-4,3 L-3,3 L-3,2 L-2,2 L-2,1 L0,1 Z " fill="#F5F9FA" transform="translate(41,43)"/>
<path d="M0,0 L5,0 L5,15 L6,15 L6,16 L10,16 L10,15 L12,15 L12,0 L17,0 L17,20 L12,20 L12,19 L11,19 L11,20 L3,20 L3,19 L2,19 L2,18 L1,18 L1,16 L0,16 Z " fill="#5E5C5C" transform="translate(215,160)"/>
<path d="M0,0 L4,0 L4,1 L7,1 L7,2 L8,2 L8,4 L9,4 L9,21 L5,21 L5,8 L4,8 L4,5 L2,5 L2,4 L0,4 L0,5 L-2,5 L-2,6 L-3,6 L-3,21 L-7,21 L-7,1 L-3,1 L-3,2 L-2,2 L-2,1 L0,1 Z " fill="#5E5C5C" transform="translate(369,159)"/>
<path d="M0,0 L4,0 L4,1 L7,1 L7,2 L8,2 L8,4 L9,4 L9,21 L5,21 L5,9 L4,9 L4,5 L2,5 L2,4 L0,4 L0,5 L-2,5 L-2,6 L-3,6 L-3,21 L-7,21 L-7,1 L-4,1 L-4,2 L-2,2 L-2,1 L0,1 Z " fill="#5E5C5C" transform="translate(243,159)"/>
<path d="M0,0 L4,0 L4,1 L7,1 L7,2 L8,2 L8,4 L9,4 L9,21 L5,21 L5,7 L4,7 L4,5 L2,5 L2,4 L0,4 L0,5 L-2,5 L-2,6 L-3,6 L-3,21 L-7,21 L-7,1 L-3,1 L-3,2 L-2,2 L-2,1 L0,1 Z " fill="#5E5C5C" transform="translate(491,159)"/>
<path d="M0,0 L4,0 L4,1 L7,1 L7,6 L5,6 L5,5 L3,5 L3,4 L1,4 L1,5 L0,5 L0,7 L1,7 L1,8 L3,8 L3,9 L5,9 L5,10 L6,10 L6,11 L7,11 L7,12 L8,12 L8,19 L7,19 L7,20 L5,20 L5,21 L-4,21 L-4,20 L-5,20 L-5,17 L-4,17 L-4,16 L-1,16 L-1,17 L3,17 L3,16 L4,16 L4,15 L3,15 L3,14 L2,14 L2,13 L1,13 L1,12 L-1,12 L-1,11 L-3,11 L-3,10 L-4,10 L-4,9 L-5,9 L-5,3 L-4,3 L-4,2 L-3,2 L-3,1 L0,1 Z " fill="#5E5C5C" transform="translate(316,159)"/>
<path d="M0,0 L2,0 L2,6 L7,6 L7,9 L2,9 L2,22 L8,22 L8,26 L0,26 L0,25 L-1,25 L-1,24 L-2,24 L-2,23 L-3,23 L-3,9 L-5,9 L-5,6 L-3,6 L-3,2 L-2,2 L-2,1 L0,1 Z " fill="#5E5C5C" transform="translate(749,154)"/>
<path d="M0,0 L1,0 L1,6 L6,6 L6,9 L1,9 L1,21 L2,21 L2,22 L7,22 L7,24 L8,24 L8,26 L-1,26 L-1,25 L-2,25 L-2,24 L-3,24 L-3,21 L-4,21 L-4,9 L-6,9 L-6,6 L-4,6 L-4,2 L-3,2 L-3,1 L0,1 Z " fill="#5E5C5C" transform="translate(332,154)"/>
<path d="M0,0 L4,0 L4,22 L5,22 L5,24 L8,24 L8,28 L3,28 L3,27 L1,27 L1,25 L0,25 Z " fill="#5E5C5C" transform="translate(684,152)"/>
<path d="M0,0 L4,0 L4,1 L5,1 L5,3 L4,3 L4,5 L2,5 L2,4 L0,4 L0,5 L-1,5 L-1,6 L-2,6 L-2,8 L-3,8 L-3,21 L-7,21 L-7,1 L-3,1 L-3,2 L-2,2 L-2,1 L0,1 Z " fill="#5E5C5C" transform="translate(305,159)"/>
<path d="M0,0 L7,0 L7,20 L2,20 L2,4 L0,4 Z " fill="#5E5C5C" transform="translate(694,160)"/>
<path d="M0,0 L5,0 L5,1 L6,1 L6,2 L7,2 L7,4 L8,4 L8,7 L7,7 L7,9 L6,9 L6,10 L4,10 L4,11 L0,11 L0,10 L-1,10 L-1,9 L-2,9 L-2,8 L-3,8 L-3,3 L-2,3 L-2,1 L0,1 Z " fill="#5E5C5C" transform="translate(429,166)"/>
<path d="M0,0 L5,0 L5,1 L6,1 L6,2 L7,2 L7,9 L6,9 L6,10 L4,10 L4,11 L0,11 L0,10 L-2,10 L-2,8 L-3,8 L-3,3 L-2,3 L-2,1 L0,1 Z " fill="#5E5C5C" transform="translate(608,166)"/>
<path d="M0,0 L2,0 L2,1 L3,1 L3,2 L4,2 L4,4 L3,4 L3,5 L2,5 L2,6 L0,6 L0,5 L-2,5 L-2,2 L-1,2 L-1,1 L0,1 Z " fill="#5D5B5B" transform="translate(698,152)"/>
</svg>
